<svg width="73" height="72" viewBox="0 0 73 72" fill="none" xmlns="http://www.w3.org/2000/svg">
<path d="M32.9384 25.488C32.5544 25.536 32.1704 25.68 31.7864 25.92C31.4024 26.16 31.1024 26.496 30.8864 26.928C30.6704 27.36 30.5384 27.744 30.4904 28.08C30.3944 28.656 30.3704 29.136 30.4184 29.52C30.5144 30.144 30.7184 30.576 31.0304 30.816C31.3424 31.056 31.6904 31.152 32.0744 31.104L32.7944 31.032C32.9384 31.032 33.1544 30.936 33.4424 30.744L33.8744 25.488H32.9384ZM0.466391 21.024C2.67439 23.232 6.01039 26.568 10.4744 31.032C19.3544 39.864 26.0024 46.512 30.4184 50.976C30.8504 51.408 31.1984 51.612 31.4624 51.588C31.7264 51.564 32.0744 51.36 32.5064 50.976L60.8024 22.608L61.3784 22.104C62.1464 21.48 62.6144 20.964 62.7824 20.556C62.9504 20.148 63.0104 19.464 62.9624 18.504L62.8904 17.568C62.9384 15.6 61.9544 14.616 59.9384 14.616H2.91439C0.994391 14.616 0.0343906 15.576 0.0343906 17.496V19.872C-0.0136094 20.208 0.130391 20.592 0.466391 21.024ZM23.3624 26.856C23.6984 25.608 24.2744 24.384 25.0904 23.184C25.9544 22.08 27.0584 21.144 28.4024 20.376C29.8424 19.56 31.5224 19.056 33.4424 18.864C34.4024 18.816 35.3984 18.876 36.4304 19.044C37.4624 19.212 38.3264 19.536 39.0224 20.016C39.7184 20.496 40.3544 21.192 40.9304 22.104C41.4104 22.92 41.7224 23.952 41.8664 25.2C41.9144 25.968 41.8664 26.832 41.7224 27.792C41.5304 28.608 41.1944 29.4 40.7144 30.168C40.3304 30.84 39.7904 31.428 39.0944 31.932C38.3984 32.436 37.5584 32.748 36.5744 32.868C35.5904 32.988 34.8104 32.784 34.2344 32.256C33.9944 32.448 33.5864 32.688 33.0104 32.976C32.6264 33.12 32.0504 33.24 31.2824 33.336C30.8024 33.432 30.3704 33.42 29.9864 33.3C29.6024 33.18 29.2424 33 28.9064 32.76C28.5224 32.376 28.2584 32.04 28.1144 31.752C27.9224 31.32 27.7784 30.816 27.6824 30.24C27.5864 29.28 27.6704 28.392 27.9344 27.576C28.1984 26.76 28.5704 26.04 29.0504 25.416C29.4344 24.936 30.0104 24.432 30.7784 23.904C31.4504 23.568 32.1944 23.328 33.0104 23.184H33.6584C34.2344 23.136 34.6424 23.136 34.8824 23.184C35.3624 23.184 35.9384 23.28 36.6104 23.472L35.9624 30.672C36.0584 30.72 36.2984 30.744 36.6824 30.744C37.2104 30.648 37.6664 30.432 38.0504 30.096C38.4344 29.76 38.7224 29.352 38.9144 28.872C39.1064 28.392 39.2624 27.852 39.3824 27.252C39.5024 26.652 39.5144 26.04 39.4184 25.416C39.2744 23.88 38.6744 22.704 37.6184 21.888C36.5624 21.168 35.1464 20.88 33.3704 21.024C32.1224 21.168 30.9224 21.504 29.7704 22.032C28.8104 22.56 27.9944 23.28 27.3224 24.192C26.6504 25.104 26.1704 26.064 25.8824 27.072C25.5944 28.08 25.4984 29.16 25.5944 30.312C25.6424 31.128 25.8824 31.944 26.3144 32.76C26.7464 33.576 27.2024 34.128 27.6824 34.416C28.2584 34.848 28.8824 35.136 29.5544 35.28C30.2264 35.424 30.9704 35.448 31.7864 35.352C32.7464 35.256 33.4184 35.16 33.8024 35.064C34.4264 34.92 34.9784 34.704 35.4584 34.416L36.0344 35.64C36.1304 35.928 36.2024 36.144 36.2504 36.288C36.0584 36.432 35.7704 36.576 35.3864 36.72C34.9064 36.912 34.5344 37.044 34.2704 37.116C34.0064 37.188 33.5864 37.272 33.0104 37.368C32.4344 37.464 32.0024 37.512 31.7144 37.512C30.6584 37.656 29.6264 37.608 28.6184 37.368C27.6104 37.128 26.7104 36.732 25.9184 36.18C25.1264 35.628 24.4904 34.896 24.0104 33.984C23.4344 32.928 23.1224 31.8 23.0744 30.6C22.9304 29.544 23.0264 28.296 23.3624 26.856ZM48.7064 40.248C48.6584 40.2 48.5864 40.128 48.4904 40.032L48.0584 39.672C47.8664 39.96 47.7224 40.152 47.6264 40.248L34.6664 53.208C33.6584 54.216 32.5904 54.72 31.4624 54.72C30.3344 54.72 29.2904 54.24 28.3304 53.28L15.3704 40.32C15.2264 40.176 15.0584 39.96 14.8664 39.672C14.7224 39.768 14.6024 39.864 14.5064 39.96L0.394391 54.072C0.0583906 54.408 -0.0376094 54.864 0.106391 55.44C0.394391 56.736 1.30639 57.384 2.84239 57.384H60.5864C61.5944 57.24 62.2904 56.76 62.6744 55.944C62.8664 55.464 62.9504 55.08 62.9264 54.792C62.9024 54.504 62.6984 54.168 62.3144 53.784C59.2904 50.808 54.7544 46.296 48.7064 40.248ZM0.0343906 49.824L12.2744 37.584C9.58639 34.8 5.50639 30.672 0.0343906 25.2V49.824ZM62.8904 49.752V25.2L50.6504 37.44L62.8904 49.752Z" fill="#E48D7A"/>
</svg>
