<svg width="20" height="20" viewBox="0 0 20 20" fill="none" xmlns="http://www.w3.org/2000/svg">
<g clip-path="url(#clip0_140_83)">
<path d="M5.57146 18.32C5.1448 17.76 4.77813 17.2533 4.47146 16.8C3.1248 14.9066 2.03146 13.0866 1.19146 11.34C0.924798 10.78 0.718131 10.3 0.571464 9.89998C0.371464 9.36665 0.224798 8.86665 0.131464 8.39998C-0.255202 6.43998 0.204798 4.72665 1.51146 3.25998C2.75146 1.84665 4.3448 1.17998 6.29146 1.25998C7.15813 1.28665 7.97813 1.50998 8.75146 1.92998C9.5248 2.34998 10.1781 2.91332 10.7115 3.61998C11.2448 4.32665 11.5981 5.10665 11.7715 5.95998C11.9848 7.01332 11.9248 8.05998 11.5915 9.09998C11.0181 10.9 10.0648 12.82 8.73146 14.86C8.3448 15.46 7.73813 16.34 6.91146 17.5L6.07146 18.68C6.0448 18.7066 6.0248 18.73 6.01146 18.75C5.99813 18.77 5.94813 18.74 5.86146 18.66C5.7748 18.58 5.67813 18.4666 5.57146 18.32ZM8.87146 7.27998C8.8848 6.78665 8.7748 6.31665 8.54146 5.86998C8.30813 5.42332 7.98146 5.05665 7.56146 4.76998C7.14146 4.48332 6.6848 4.32665 6.19146 4.29998C5.63146 4.27332 5.1148 4.37665 4.64146 4.60998C4.16813 4.84332 3.79146 5.17998 3.51146 5.61998C3.23146 6.05998 3.07813 6.56665 3.05146 7.13998C3.0248 7.63332 3.1348 8.10332 3.38146 8.54998C3.62813 8.99665 3.9648 9.36332 4.39146 9.64998C4.81813 9.93665 5.27813 10.0866 5.77146 10.1C6.31813 10.1266 6.8248 10.0233 7.29146 9.78998C7.75813 9.55665 8.13146 9.21998 8.41146 8.77998C8.69146 8.33998 8.8448 7.83998 8.87146 7.27998Z" fill="white"/>
</g>
<defs>
<clipPath id="clip0_140_83">
<rect width="20" height="20" fill="white" transform="matrix(1 0 0 -1 0 20)"/>
</clipPath>
</defs>
</svg>
