<svg width="20" height="20" viewBox="0 0 20 20" fill="none" xmlns="http://www.w3.org/2000/svg">
<g clip-path="url(#clip0_74_79)">
<path d="M5.57122 18.3201C5.14455 17.7601 4.77789 17.2534 4.47122 16.8001C3.12455 14.9068 2.03122 13.0868 1.19122 11.3401C0.924554 10.7801 0.717887 10.3001 0.57122 9.9001C0.37122 9.36677 0.224554 8.86677 0.13122 8.4001C-0.255446 6.4401 0.204554 4.72677 1.51122 3.2601C2.75122 1.84677 4.34455 1.1801 6.29122 1.2601C7.15789 1.28677 7.97789 1.5101 8.75122 1.9301C9.52455 2.3501 10.1779 2.91344 10.7112 3.6201C11.2446 4.32677 11.5979 5.10677 11.7712 5.9601C11.9846 7.01344 11.9246 8.0601 11.5912 9.1001C11.0179 10.9001 10.0646 12.8201 8.73122 14.8601C8.34455 15.4601 7.73789 16.3401 6.91122 17.5001L6.07122 18.6801C6.04455 18.7068 6.02455 18.7301 6.01122 18.7501C5.99789 18.7701 5.94789 18.7401 5.86122 18.6601C5.77455 18.5801 5.67789 18.4668 5.57122 18.3201ZM8.87122 7.2801C8.88455 6.78677 8.77455 6.31677 8.54122 5.8701C8.30789 5.42344 7.98122 5.05677 7.56122 4.7701C7.14122 4.48344 6.68455 4.32677 6.19122 4.3001C5.63122 4.27344 5.11455 4.37677 4.64122 4.6101C4.16789 4.84344 3.79122 5.1801 3.51122 5.6201C3.23122 6.0601 3.07789 6.56677 3.05122 7.1401C3.02455 7.63344 3.13455 8.10344 3.38122 8.5501C3.62789 8.99677 3.96455 9.36344 4.39122 9.6501C4.81789 9.93677 5.27789 10.0868 5.77122 10.1001C6.31789 10.1268 6.82455 10.0234 7.29122 9.7901C7.75789 9.55677 8.13122 9.2201 8.41122 8.7801C8.69122 8.3401 8.84455 7.8401 8.87122 7.2801Z" fill="white"/>
</g>
<defs>
<clipPath id="clip0_74_79">
<rect width="20" height="20" fill="white" transform="matrix(1 0 0 -1 0 20)"/>
</clipPath>
</defs>
</svg>
