<svg width="65" height="64" viewBox="0 0 65 64" fill="none" xmlns="http://www.w3.org/2000/svg">
<path d="M17.8508 58.624C16.4855 56.832 15.3122 55.2107 14.3308 53.76C10.0215 47.7013 6.52285 41.8773 3.83485 36.288C2.98152 34.496 2.32019 32.96 1.85085 31.68C1.21085 29.9733 0.74152 28.3733 0.442854 26.88C-0.794479 20.608 0.67752 15.1253 4.85885 10.432C8.82685 5.9093 13.9255 3.77597 20.1548 4.03197C22.9282 4.1173 25.5522 4.83197 28.0268 6.17597C30.5015 7.51997 32.5922 9.32264 34.2988 11.584C36.0055 13.8453 37.1362 16.3413 37.6908 19.072C38.3735 22.4426 38.1815 25.792 37.1148 29.12C35.2802 34.88 32.2295 41.024 27.9628 47.552C26.7255 49.472 24.7842 52.288 22.1388 56L19.4508 59.776C19.3655 59.8613 19.3015 59.936 19.2588 60C19.2162 60.064 19.0562 59.968 18.7788 59.712C18.5015 59.456 18.1922 59.0933 17.8508 58.624ZM28.4108 23.296C28.4535 21.7173 28.1015 20.2133 27.3548 18.784C26.6082 17.3546 25.5628 16.1813 24.2188 15.264C22.8748 14.3466 21.4135 13.8453 19.8348 13.76C18.0428 13.6746 16.3895 14.0053 14.8748 14.752C13.3602 15.4986 12.1548 16.576 11.2588 17.984C10.3628 19.392 9.87218 21.0133 9.78685 22.848C9.70151 24.4266 10.0535 25.9306 10.8428 27.36C11.6322 28.7893 12.7095 29.9626 14.0748 30.88C15.4402 31.7973 16.9122 32.2773 18.4908 32.32C20.2402 32.4053 21.8615 32.0746 23.3548 31.328C24.8482 30.5813 26.0428 29.504 26.9388 28.096C27.8348 26.688 28.3255 25.088 28.4108 23.296Z" fill="#E48D7A"/>
</svg>
