<svg width="20" height="20" viewBox="0 0 20 20" fill="none" xmlns="http://www.w3.org/2000/svg">
<path d="M9.1425 7.07994C9.03583 7.09327 8.92917 7.13327 8.8225 7.19994C8.71583 7.26661 8.6325 7.35994 8.5725 7.47994C8.5125 7.59994 8.47583 7.70661 8.4625 7.79994C8.43583 7.95994 8.42917 8.09327 8.4425 8.19994C8.46917 8.37327 8.52583 8.49327 8.6125 8.55994C8.69917 8.62661 8.79583 8.65327 8.9025 8.63994L9.1025 8.61994C9.1425 8.61994 9.2025 8.59327 9.2825 8.53994L9.4025 7.07994H9.1425ZM0.1225 5.83994C0.735833 6.45327 1.6625 7.37994 2.9025 8.61994C5.36917 11.0733 7.21583 12.9199 8.4425 14.1599C8.5625 14.2799 8.65917 14.3366 8.7325 14.3299C8.80583 14.3233 8.9025 14.2666 9.0225 14.1599L16.8825 6.27994L17.0425 6.13994C17.2558 5.96661 17.3858 5.82327 17.4325 5.70994C17.4792 5.59661 17.4958 5.40661 17.4825 5.13994L17.4625 4.87994C17.4758 4.33327 17.2025 4.05994 16.6425 4.05994H0.8025C0.269167 4.05994 0.0025 4.32661 0.0025 4.85994V5.51994C-0.0108333 5.61327 0.0291667 5.71994 0.1225 5.83994ZM6.4825 7.45994C6.57583 7.11327 6.73583 6.77327 6.9625 6.43994C7.2025 6.13327 7.50917 5.87327 7.8825 5.65994C8.2825 5.43327 8.74917 5.29327 9.2825 5.23994C9.54917 5.22661 9.82583 5.24327 10.1125 5.28994C10.3992 5.33661 10.6392 5.42661 10.8325 5.55994C11.0258 5.69327 11.2025 5.88661 11.3625 6.13994C11.4958 6.36661 11.5825 6.65327 11.6225 6.99994C11.6358 7.21327 11.6225 7.45327 11.5825 7.71994C11.5292 7.94661 11.4358 8.16661 11.3025 8.37994C11.1958 8.56661 11.0458 8.72994 10.8525 8.86994C10.6592 9.00994 10.4258 9.09661 10.1525 9.12994C9.87917 9.16327 9.6625 9.10661 9.5025 8.95994C9.43583 9.01327 9.3225 9.07994 9.1625 9.15994C9.05583 9.19994 8.89583 9.23327 8.6825 9.25994C8.54917 9.28661 8.42917 9.28327 8.3225 9.24994C8.21583 9.21661 8.11583 9.16661 8.0225 9.09994C7.91583 8.99327 7.8425 8.89994 7.8025 8.81994C7.74917 8.69994 7.70917 8.55994 7.6825 8.39994C7.65583 8.13327 7.67917 7.88661 7.7525 7.65994C7.82583 7.43327 7.92917 7.23327 8.0625 7.05994C8.16917 6.92661 8.32917 6.78661 8.5425 6.63994C8.72917 6.54661 8.93583 6.47994 9.1625 6.43994H9.3425C9.5025 6.42661 9.61583 6.42661 9.6825 6.43994C9.81583 6.43994 9.97583 6.46661 10.1625 6.51994L9.9825 8.51994C10.0092 8.53327 10.0758 8.53994 10.1825 8.53994C10.3292 8.51327 10.4558 8.45327 10.5625 8.35994C10.6692 8.26661 10.7492 8.15327 10.8025 8.01994C10.8558 7.88661 10.8992 7.73661 10.9325 7.56994C10.9658 7.40327 10.9692 7.23327 10.9425 7.05994C10.9025 6.63327 10.7358 6.30661 10.4425 6.07994C10.1492 5.87994 9.75583 5.79994 9.2625 5.83994C8.91583 5.87994 8.5825 5.97327 8.2625 6.11994C7.99583 6.26661 7.76917 6.46661 7.5825 6.71994C7.39583 6.97327 7.2625 7.23994 7.1825 7.51994C7.1025 7.79994 7.07583 8.09994 7.1025 8.41994C7.11583 8.64661 7.1825 8.87327 7.3025 9.09994C7.4225 9.32661 7.54917 9.47994 7.6825 9.55994C7.8425 9.67994 8.01583 9.75994 8.2025 9.79994C8.38917 9.83994 8.59583 9.84661 8.8225 9.81994C9.08917 9.79327 9.27583 9.76661 9.3825 9.73994C9.55583 9.69994 9.70917 9.63994 9.8425 9.55994L10.0025 9.89994C10.0292 9.97994 10.0492 10.0399 10.0625 10.0799C10.0092 10.1199 9.92917 10.1599 9.8225 10.1999C9.68917 10.2533 9.58583 10.2899 9.5125 10.3099C9.43917 10.3299 9.3225 10.3533 9.1625 10.3799C9.0025 10.4066 8.8825 10.4199 8.8025 10.4199C8.50917 10.4599 8.2225 10.4466 7.9425 10.3799C7.6625 10.3133 7.4125 10.2033 7.1925 10.0499C6.9725 9.89661 6.79583 9.69327 6.6625 9.43994C6.5025 9.14661 6.41583 8.83327 6.4025 8.49994C6.3625 8.20661 6.38917 7.85994 6.4825 7.45994ZM13.5225 11.1799C13.5092 11.1666 13.4892 11.1466 13.4625 11.1199L13.3425 11.0199C13.2892 11.0999 13.2492 11.1533 13.2225 11.1799L9.6225 14.7799C9.3425 15.0599 9.04583 15.1999 8.7325 15.1999C8.41917 15.1999 8.12917 15.0666 7.8625 14.7999L4.2625 11.1999C4.2225 11.1599 4.17583 11.0999 4.1225 11.0199C4.0825 11.0466 4.04917 11.0733 4.0225 11.0999L0.1025 15.0199C0.00916667 15.1133 -0.0175 15.2399 0.0225 15.3999C0.1025 15.7599 0.355833 15.9399 0.7825 15.9399H16.8225C17.1025 15.8999 17.2958 15.7666 17.4025 15.5399C17.4558 15.4066 17.4792 15.2999 17.4725 15.2199C17.4658 15.1399 17.4092 15.0466 17.3025 14.9399C16.4625 14.1133 15.2025 12.8599 13.5225 11.1799ZM0.0025 13.8399L3.4025 10.4399C2.65583 9.66661 1.5225 8.51994 0.0025 6.99994V13.8399ZM17.4625 13.8199V6.99994L14.0625 10.3999L17.4625 13.8199Z" fill="white"/>
</svg>
