<svg width="20" height="20" viewBox="0 0 20 20" fill="none" xmlns="http://www.w3.org/2000/svg">
<g clip-path="url(#clip0_140_34)">
<path d="M5.57122 18.32C5.14455 17.76 4.77789 17.2533 4.47122 16.8C3.12455 14.9066 2.03122 13.0866 1.19122 11.34C0.924554 10.78 0.717887 10.3 0.57122 9.89998C0.37122 9.36665 0.224554 8.86665 0.13122 8.39998C-0.255446 6.43998 0.204554 4.72665 1.51122 3.25998C2.75122 1.84665 4.34455 1.17998 6.29122 1.25998C7.15789 1.28665 7.97789 1.50998 8.75122 1.92998C9.52455 2.34998 10.1779 2.91332 10.7112 3.61998C11.2446 4.32665 11.5979 5.10665 11.7712 5.95998C11.9846 7.01332 11.9246 8.05998 11.5912 9.09998C11.0179 10.9 10.0646 12.82 8.73122 14.86C8.34455 15.46 7.73789 16.34 6.91122 17.5L6.07122 18.68C6.04455 18.7066 6.02455 18.73 6.01122 18.75C5.99789 18.77 5.94789 18.74 5.86122 18.66C5.77455 18.58 5.67789 18.4666 5.57122 18.32ZM8.87122 7.27998C8.88455 6.78665 8.77455 6.31665 8.54122 5.86998C8.30789 5.42332 7.98122 5.05665 7.56122 4.76998C7.14122 4.48332 6.68455 4.32665 6.19122 4.29998C5.63122 4.27332 5.11455 4.37665 4.64122 4.60998C4.16789 4.84332 3.79122 5.17998 3.51122 5.61998C3.23122 6.05998 3.07789 6.56665 3.05122 7.13998C3.02455 7.63332 3.13455 8.10332 3.38122 8.54998C3.62789 8.99665 3.96455 9.36332 4.39122 9.64998C4.81789 9.93665 5.27789 10.0866 5.77122 10.1C6.31789 10.1266 6.82455 10.0233 7.29122 9.78998C7.75789 9.55665 8.13122 9.21998 8.41122 8.77998C8.69122 8.33998 8.84455 7.83998 8.87122 7.27998Z" fill="white"/>
</g>
<defs>
<clipPath id="clip0_140_34">
<rect width="20" height="20" fill="white" transform="matrix(1 0 0 -1 0 20)"/>
</clipPath>
</defs>
</svg>
