<svg width="62" height="54" viewBox="0 0 62 54" fill="none" xmlns="http://www.w3.org/2000/svg">
<path d="M31.4727 53.946C30.3706 53.982 29.0645 53.64 27.5542 52.92C26.3297 52.308 25.0848 51.534 23.8195 50.598C21.2888 48.69 18.8806 46.314 16.5948 43.47C14.9213 41.382 13.0437 38.664 10.9621 35.316C8.63548 31.68 6.73748 28.422 5.26806 25.542C3.39047 21.942 1.96187 18.504 0.982258 15.228C0.492452 13.464 0.186323 11.934 0.0638714 10.638C-0.0585801 8.98201 0.08428 7.45201 0.492452 6.04801C1.26798 3.49201 2.9823 1.99801 5.63541 1.56601C6.65584 1.42201 8.2069 1.15201 10.2886 0.756009C11.8396 0.432009 13.0029 0.216009 13.7784 0.108009C14.6764 -0.0359906 15.4009 0.0180094 15.952 0.270009C16.503 0.522009 16.9418 1.00801 17.2683 1.72801C19.2683 5.97601 20.9827 9.73801 22.4113 13.014C22.7378 13.77 22.8092 14.409 22.6256 14.931C22.4419 15.453 21.9827 15.93 21.248 16.362L19.901 17.172C18.6765 17.856 17.7785 18.396 17.2071 18.792C16.9622 18.972 16.7581 19.215 16.5948 19.521C16.4316 19.827 16.3703 20.088 16.4111 20.304C17.7989 25.2 20.4112 29.61 24.248 33.534C24.8195 34.146 25.493 34.272 26.2685 33.912C26.9216 33.624 27.942 33.246 29.3298 32.778L30.6155 32.292C31.5135 32.004 32.2686 31.932 32.8809 32.076C33.4931 32.22 34.0646 32.634 34.5952 33.318C37.9422 37.71 40.432 41.004 42.0647 43.2C42.6362 43.992 42.8811 44.676 42.7994 45.252C42.7178 45.828 42.2892 46.458 41.5137 47.142L40.9014 47.682C39.9627 48.474 39.0647 49.176 38.2075 49.788C36.8197 50.724 34.5748 52.11 31.4727 53.946Z" fill="#E48D7A"/>
</svg>
