<svg width="20" height="20" viewBox="0 0 20 20" fill="none" xmlns="http://www.w3.org/2000/svg">
<path d="M10.2738 19.98C9.91385 19.9933 9.48718 19.8667 8.99385 19.6C8.59385 19.3733 8.18718 19.0867 7.77385 18.74C6.94718 18.0333 6.16051 17.1533 5.41385 16.1C4.86718 15.3267 4.25385 14.32 3.57385 13.08C2.81385 11.7333 2.19385 10.5267 1.71385 9.46001C1.10051 8.12667 0.633846 6.85334 0.313846 5.64001C0.153846 4.98667 0.0538462 4.42001 0.0138462 3.94001C-0.0261538 3.32667 0.0205128 2.76001 0.153846 2.24001C0.407179 1.29334 0.967179 0.740005 1.83385 0.580005C2.16718 0.526672 2.67385 0.426672 3.35385 0.280005C3.86051 0.160005 4.24051 0.0800053 4.49385 0.0400053C4.78718 -0.013328 5.02385 0.006672 5.20385 0.100005C5.38385 0.193339 5.52718 0.373339 5.63385 0.640005C6.28718 2.21334 6.84718 3.60667 7.31385 4.82001C7.42051 5.10001 7.44385 5.33667 7.38385 5.53001C7.32385 5.72334 7.17385 5.90001 6.93385 6.06001L6.49385 6.36001C6.09385 6.61334 5.80051 6.81334 5.61385 6.96001C5.53385 7.02667 5.46718 7.11667 5.41385 7.23001C5.36051 7.34334 5.34051 7.44001 5.35385 7.52001C5.80718 9.33334 6.66051 10.9667 7.91385 12.42C8.10051 12.6467 8.32051 12.6933 8.57385 12.56C8.78718 12.4533 9.12051 12.3133 9.57385 12.14L9.99385 11.96C10.2872 11.8533 10.5338 11.8267 10.7338 11.88C10.9338 11.9333 11.1205 12.0867 11.2938 12.34C12.3872 13.9667 13.2005 15.1867 13.7338 16C13.9205 16.2933 14.0005 16.5467 13.9738 16.76C13.9472 16.9733 13.8072 17.2067 13.5538 17.46L13.3538 17.66C13.0472 17.9533 12.7538 18.2133 12.4738 18.44C12.0205 18.7867 11.2872 19.3 10.2738 19.98Z" fill="white"/>
</svg>
