<svg width="20" height="20" viewBox="0 0 20 20" fill="none" xmlns="http://www.w3.org/2000/svg">
<path d="M9.1425 7.08C9.03583 7.09334 8.92917 7.13334 8.8225 7.2C8.71583 7.26667 8.6325 7.36 8.5725 7.48C8.5125 7.6 8.47583 7.70667 8.4625 7.8C8.43583 7.96 8.42917 8.09334 8.4425 8.2C8.46917 8.37334 8.52583 8.49334 8.6125 8.56C8.69917 8.62667 8.79583 8.65334 8.9025 8.64L9.1025 8.62C9.1425 8.62 9.2025 8.59334 9.2825 8.54L9.4025 7.08H9.1425ZM0.1225 5.84C0.735833 6.45334 1.6625 7.38 2.9025 8.62C5.36917 11.0733 7.21583 12.92 8.4425 14.16C8.5625 14.28 8.65917 14.3367 8.7325 14.33C8.80583 14.3233 8.9025 14.2667 9.0225 14.16L16.8825 6.28L17.0425 6.14C17.2558 5.96667 17.3858 5.82334 17.4325 5.71C17.4792 5.59667 17.4958 5.40667 17.4825 5.14L17.4625 4.88C17.4758 4.33334 17.2025 4.06 16.6425 4.06H0.8025C0.269167 4.06 0.0025 4.32667 0.0025 4.86V5.52C-0.0108333 5.61334 0.0291667 5.72 0.1225 5.84ZM6.4825 7.46C6.57583 7.11334 6.73583 6.77334 6.9625 6.44C7.2025 6.13334 7.50917 5.87334 7.8825 5.66C8.2825 5.43334 8.74917 5.29334 9.2825 5.24C9.54917 5.22667 9.82583 5.24334 10.1125 5.29C10.3992 5.33667 10.6392 5.42667 10.8325 5.56C11.0258 5.69334 11.2025 5.88667 11.3625 6.14C11.4958 6.36667 11.5825 6.65334 11.6225 7C11.6358 7.21334 11.6225 7.45334 11.5825 7.72C11.5292 7.94667 11.4358 8.16667 11.3025 8.38C11.1958 8.56667 11.0458 8.73 10.8525 8.87C10.6592 9.01 10.4258 9.09667 10.1525 9.13C9.87917 9.16334 9.6625 9.10667 9.5025 8.96C9.43583 9.01334 9.3225 9.08 9.1625 9.16C9.05583 9.2 8.89583 9.23334 8.6825 9.26C8.54917 9.28667 8.42917 9.28334 8.3225 9.25C8.21583 9.21667 8.11583 9.16667 8.0225 9.1C7.91583 8.99334 7.8425 8.9 7.8025 8.82C7.74917 8.7 7.70917 8.56 7.6825 8.4C7.65583 8.13334 7.67917 7.88667 7.7525 7.66C7.82583 7.43334 7.92917 7.23334 8.0625 7.06C8.16917 6.92667 8.32917 6.78667 8.5425 6.64C8.72917 6.54667 8.93583 6.48 9.1625 6.44H9.3425C9.5025 6.42667 9.61583 6.42667 9.6825 6.44C9.81583 6.44 9.97583 6.46667 10.1625 6.52L9.9825 8.52C10.0092 8.53334 10.0758 8.54 10.1825 8.54C10.3292 8.51334 10.4558 8.45334 10.5625 8.36C10.6692 8.26667 10.7492 8.15334 10.8025 8.02C10.8558 7.88667 10.8992 7.73667 10.9325 7.57C10.9658 7.40334 10.9692 7.23334 10.9425 7.06C10.9025 6.63334 10.7358 6.30667 10.4425 6.08C10.1492 5.88 9.75583 5.8 9.2625 5.84C8.91583 5.88 8.5825 5.97334 8.2625 6.12C7.99583 6.26667 7.76917 6.46667 7.5825 6.72C7.39583 6.97334 7.2625 7.24 7.1825 7.52C7.1025 7.8 7.07583 8.1 7.1025 8.42C7.11583 8.64667 7.1825 8.87334 7.3025 9.1C7.4225 9.32667 7.54917 9.48 7.6825 9.56C7.8425 9.68 8.01583 9.76 8.2025 9.8C8.38917 9.84 8.59583 9.84667 8.8225 9.82C9.08917 9.79334 9.27583 9.76667 9.3825 9.74C9.55583 9.7 9.70917 9.64 9.8425 9.56L10.0025 9.9C10.0292 9.98 10.0492 10.04 10.0625 10.08C10.0092 10.12 9.92917 10.16 9.8225 10.2C9.68917 10.2533 9.58583 10.29 9.5125 10.31C9.43917 10.33 9.3225 10.3533 9.1625 10.38C9.0025 10.4067 8.8825 10.42 8.8025 10.42C8.50917 10.46 8.2225 10.4467 7.9425 10.38C7.6625 10.3133 7.4125 10.2033 7.1925 10.05C6.9725 9.89667 6.79583 9.69334 6.6625 9.44C6.5025 9.14667 6.41583 8.83334 6.4025 8.5C6.3625 8.20667 6.38917 7.86 6.4825 7.46ZM13.5225 11.18C13.5092 11.1667 13.4892 11.1467 13.4625 11.12L13.3425 11.02C13.2892 11.1 13.2492 11.1533 13.2225 11.18L9.6225 14.78C9.3425 15.06 9.04583 15.2 8.7325 15.2C8.41917 15.2 8.12917 15.0667 7.8625 14.8L4.2625 11.2C4.2225 11.16 4.17583 11.1 4.1225 11.02C4.0825 11.0467 4.04917 11.0733 4.0225 11.1L0.1025 15.02C0.00916667 15.1133 -0.0175 15.24 0.0225 15.4C0.1025 15.76 0.355833 15.94 0.7825 15.94H16.8225C17.1025 15.9 17.2958 15.7667 17.4025 15.54C17.4558 15.4067 17.4792 15.3 17.4725 15.22C17.4658 15.14 17.4092 15.0467 17.3025 14.94C16.4625 14.1133 15.2025 12.86 13.5225 11.18ZM0.0025 13.84L3.4025 10.44C2.65583 9.66667 1.5225 8.52 0.0025 7V13.84ZM17.4625 13.82V7L14.0625 10.4L17.4625 13.82Z" fill="white"/>
</svg>
